<svg width="914" height="400" fill="none" xmlns="http://www.w3.org/2000/svg"><path d="M421.742 233.488c-.989 0-1.823-.162-2.5-.488a4.42 4.42 0 0 1-1.66-1.484V233h-5.195v-26.523l5.195-2.364v9.922c.443-.586 1.029-1.055 1.758-1.406.729-.365 1.595-.547 2.598-.547 1.223 0 2.35.247 3.378.742a7.529 7.529 0 0 1 2.696 2.11c.755.911 1.341 2.031 1.758 3.359.429 1.315.644 2.806.644 4.473 0 1.731-.202 3.268-.605 4.609-.404 1.328-.983 2.448-1.739 3.359a7.422 7.422 0 0 1-2.734 2.051c-1.068.469-2.266.703-3.594.703Zm-.605-5c.664 0 1.25-.13 1.758-.39a3.587 3.587 0 0 0 1.269-1.153c.352-.507.612-1.113.781-1.816.183-.703.274-1.491.274-2.363 0-1.836-.358-3.243-1.074-4.219-.704-.977-1.706-1.465-3.008-1.465-.443 0-.853.052-1.231.156a3.927 3.927 0 0 0-1.015.391c-.3.156-.56.338-.782.547-.221.195-.397.39-.527.586v8.086c.378.52.853.924 1.426 1.211.573.286 1.282.429 2.129.429ZM433.473 233v-20.449h5.195V233h-5.195Zm2.597-22.832c-.416 0-.813-.078-1.191-.234a3.325 3.325 0 0 1-.957-.664 3.304 3.304 0 0 1-.664-.958 3.085 3.085 0 0 1-.235-1.191c0-.417.079-.807.235-1.172.169-.364.39-.683.664-.957.273-.273.592-.488.957-.644a3.074 3.074 0 0 1 1.191-.235c.417 0 .808.078 1.172.235.378.156.703.371.977.644.273.274.488.593.644.957.157.365.235.755.235 1.172 0 .417-.078.814-.235 1.191a3.031 3.031 0 0 1-.644.958 3.264 3.264 0 0 1-.977.664 2.945 2.945 0 0 1-1.172.234Zm16.008 23.32c-.989 0-1.823-.162-2.5-.488a4.42 4.42 0 0 1-1.66-1.484V233h-5.195v-26.523l5.195-2.364v9.922c.443-.586 1.029-1.055 1.758-1.406.729-.365 1.595-.547 2.597-.547 1.224 0 2.351.247 3.379.742a7.537 7.537 0 0 1 2.696 2.11c.755.911 1.341 2.031 1.757 3.359.43 1.315.645 2.806.645 4.473 0 1.731-.202 3.268-.605 4.609-.404 1.328-.984 2.448-1.739 3.359a7.422 7.422 0 0 1-2.734 2.051c-1.068.469-2.266.703-3.594.703Zm-.605-5c.664 0 1.25-.13 1.757-.39a3.59 3.59 0 0 0 1.27-1.153c.352-.507.612-1.113.781-1.816.183-.703.274-1.491.274-2.363 0-1.836-.358-3.243-1.075-4.219-.703-.977-1.705-1.465-3.007-1.465-.443 0-.853.052-1.231.156a3.927 3.927 0 0 0-1.015.391c-.3.156-.56.338-.782.547-.221.195-.397.39-.527.586v8.086c.378.52.853.924 1.426 1.211.573.286 1.282.429 2.129.429Zm20.695 5c-1.445 0-2.747-.241-3.906-.722a8.346 8.346 0 0 1-2.969-2.11c-.807-.924-1.432-2.044-1.875-3.359-.443-1.328-.664-2.826-.664-4.492 0-1.667.221-3.164.664-4.493.443-1.328 1.068-2.454 1.875-3.378a8.037 8.037 0 0 1 2.969-2.11c1.159-.495 2.461-.742 3.906-.742 1.445 0 2.747.247 3.906.742a7.862 7.862 0 0 1 2.949 2.11c.821.924 1.446 2.05 1.875 3.378.443 1.329.664 2.826.664 4.493 0 1.666-.221 3.164-.664 4.492-.429 1.315-1.054 2.435-1.875 3.359a8.159 8.159 0 0 1-2.949 2.11c-1.159.481-2.461.722-3.906.722Zm0-5c.651 0 1.237-.13 1.758-.39a3.585 3.585 0 0 0 1.308-1.114c.365-.494.645-1.093.84-1.796.196-.704.293-1.498.293-2.383 0-.899-.097-1.7-.293-2.403-.195-.703-.475-1.302-.84-1.797a3.515 3.515 0 0 0-1.308-1.132c-.521-.261-1.107-.391-1.758-.391s-1.237.13-1.758.391c-.521.26-.963.638-1.328 1.132-.352.495-.625 1.094-.82 1.797-.196.703-.293 1.504-.293 2.403 0 .885.097 1.679.293 2.383.195.703.468 1.302.82 1.796.365.482.807.853 1.328 1.114.521.26 1.107.39 1.758.39Zm21.965 5c-1.003 0-1.869-.182-2.598-.547-.729-.364-1.315-.839-1.758-1.425v7.129l-5.195 2.363v-28.457h5.195v1.484c.443-.586 1.029-1.055 1.758-1.406.742-.365 1.621-.547 2.637-.547 1.263 0 2.415.234 3.457.703a7.087 7.087 0 0 1 2.656 2.07c.742.899 1.315 2.019 1.719 3.36.404 1.328.605 2.858.605 4.59 0 1.666-.214 3.164-.644 4.492-.417 1.315-1.003 2.435-1.758 3.359a7.832 7.832 0 0 1-2.695 2.11c-1.029.481-2.155.722-3.379.722Zm-.801-5c1.302 0 2.305-.488 3.008-1.465.716-.989 1.074-2.395 1.074-4.218 0-.873-.091-1.66-.273-2.364-.17-.703-.43-1.302-.782-1.796a3.578 3.578 0 0 0-1.269-1.153c-.508-.273-1.094-.41-1.758-.41-.846 0-1.556.143-2.129.43a3.878 3.878 0 0 0-1.426 1.211v8.086c.131.195.306.397.528.605.221.195.481.378.781.547.299.156.638.286 1.016.391.377.091.787.136 1.23.136Z" fill="#6C9"/><path d="M407.408 182.043c-1.459.794-3.083 1.191-4.873 1.191-2.071 0-3.747-.644-5.03-1.933-1.282-1.289-1.923-2.995-1.923-5.117 0-2.168.7-3.946 2.099-5.332 1.406-1.394 3.19-2.09 5.352-2.09 1.556 0 2.864.228 3.926.683v2.393c-1.075-.716-2.354-1.074-3.838-1.074-1.491 0-2.715.491-3.672 1.474-.951.983-1.426 2.256-1.426 3.819 0 1.608.41 2.874 1.231 3.798.82.918 1.933 1.377 3.339 1.377.964 0 1.797-.185 2.5-.556v-3.33h-2.949v-1.953h5.264v6.65Zm3.506-11.143c-.371 0-.69-.12-.957-.361a1.198 1.198 0 0 1-.391-.918c0-.371.131-.68.391-.928.267-.247.586-.371.957-.371.384 0 .71.124.977.371.267.248.4.557.4.928 0 .352-.133.654-.4.908a1.383 1.383 0 0 1-.977.371Zm1.123 12.1h-2.266v-10h2.266v10Zm7.842-.107c-.442.221-1.025.332-1.748.332-1.94 0-2.91-.931-2.91-2.793v-5.655h-1.67V173h1.67v-2.314l2.266-.645V173h2.392v1.777h-2.392v5c0 .593.107 1.016.322 1.27.215.254.573.381 1.074.381.384 0 .716-.111.996-.332v1.797Zm13.057.107h-2.334v-6.074h-6.591V183h-2.325v-14.004h2.325v5.889h6.591v-5.889h2.334V183Zm11.524 0h-2.265v-1.582h-.04c-.657 1.211-1.679 1.816-3.066 1.816-2.363 0-3.545-1.419-3.545-4.257V173h2.266v5.742c0 1.797.693 2.696 2.08 2.696.67 0 1.221-.248 1.65-.743.436-.494.655-1.142.655-1.943V173h2.265v10Zm4.864-1.445h-.039V183h-2.266v-14.805h2.266v6.563h.039c.775-1.328 1.907-1.992 3.398-1.992 1.263 0 2.25.449 2.959 1.347.716.892 1.074 2.09 1.074 3.594 0 1.673-.4 3.014-1.201 4.023-.8 1.003-1.894 1.504-3.281 1.504-1.302 0-2.285-.56-2.949-1.679Zm-.059-3.975v1.24c0 .729.231 1.348.694 1.856.468.508 1.061.762 1.777.762.84 0 1.497-.326 1.973-.977.481-.658.722-1.572.722-2.744 0-.983-.224-1.752-.674-2.305-.442-.56-1.045-.84-1.806-.84-.808 0-1.459.287-1.953.86-.489.573-.733 1.289-.733 2.148Zm26.271 5.42h-2.549l-1.26-3.564h-5.508L465.008 183h-2.539l5.244-14.004h2.617L475.536 183Zm-4.424-5.459-1.944-5.586a6.696 6.696 0 0 1-.185-.879h-.039a5.716 5.716 0 0 1-.196.879l-1.923 5.586h4.287Zm12.861 5c-.8.462-1.748.693-2.841.693-1.485 0-2.683-.462-3.594-1.386-.912-.931-1.367-2.136-1.367-3.614 0-1.647.488-2.968 1.465-3.964.983-1.003 2.294-1.504 3.935-1.504.912 0 1.716.159 2.412.478v2.11c-.696-.521-1.439-.782-2.226-.782-.957 0-1.742.326-2.354.977-.612.644-.918 1.491-.918 2.539 0 1.035.287 1.852.86 2.451.579.599 1.354.899 2.324.899.814 0 1.582-.29 2.304-.87v1.973Zm7.13.352c-.443.221-1.026.332-1.748.332-1.94 0-2.91-.931-2.91-2.793v-5.655h-1.67V173h1.67v-2.314l2.265-.645V173h2.393v1.777h-2.393v5c0 .593.108 1.016.322 1.27.215.254.573.381 1.075.381.384 0 .716-.111.996-.332v1.797Zm2.695-11.993c-.371 0-.69-.12-.957-.361a1.197 1.197 0 0 1-.39-.918c0-.371.13-.68.39-.928.267-.247.586-.371.957-.371.385 0 .71.124.977.371.267.248.4.557.4.928 0 .352-.133.654-.4.908a1.381 1.381 0 0 1-.977.371Zm1.123 12.1h-2.265v-10h2.265v10Zm7.003.234c-1.543 0-2.777-.465-3.701-1.396-.918-.938-1.377-2.178-1.377-3.721 0-1.679.478-2.991 1.435-3.935.964-.944 2.259-1.416 3.887-1.416 1.562 0 2.78.459 3.652 1.377.873.918 1.309 2.19 1.309 3.818 0 1.595-.472 2.874-1.416 3.838-.938.957-2.201 1.435-3.789 1.435Zm.107-8.662c-.885 0-1.585.31-2.099.928-.515.618-.772 1.471-.772 2.559 0 1.048.261 1.875.781 2.48.521.599 1.218.899 2.09.899.892 0 1.576-.297 2.051-.889.482-.593.723-1.436.723-2.529 0-1.101-.241-1.95-.723-2.549-.475-.599-1.159-.899-2.051-.899ZM517.95 183h-2.266v-5.635c0-1.868-.661-2.803-1.982-2.803-.691 0-1.26.261-1.709.782-.45.514-.674 1.165-.674 1.953V183h-2.276v-10h2.276v1.66h.039c.748-1.263 1.829-1.894 3.242-1.894 1.087 0 1.917.354 2.49 1.064.573.703.86 1.722.86 3.057V183Z" fill="silver"/></svg>